<?xml version="1.0" encoding="UTF-8"?>
<svg version="1.1" xmlns="http://www.w3.org/2000/svg" width="350" height="86">
<path d="M0 0 C1.32512352 -0.00422974 1.32512352 -0.00422974 2.67701721 -0.00854492 C4.14200905 -0.00550858 4.14200905 -0.00550858 5.63659668 -0.00241089 C7.17059364 -0.00503937 7.17059364 -0.00503937 8.73558044 -0.00772095 C12.13424347 -0.01214163 15.53285495 -0.00920071 18.93151855 -0.00582886 C21.28181976 -0.00650183 23.63212091 -0.00747181 25.98242188 -0.00872803 C30.91549337 -0.01020529 35.84854681 -0.00804952 40.78161621 -0.00338745 C47.12077523 0.00230985 53.45989191 -0.000969 59.79904938 -0.00695992 C64.65444256 -0.01056475 69.50982563 -0.0094273 74.36521912 -0.00683212 C76.70332341 -0.00616264 79.04142862 -0.00699202 81.37953186 -0.00931168 C84.64102632 -0.01183693 87.90245118 -0.0079994 91.16394043 -0.00241089 C92.14060165 -0.00443512 93.11726288 -0.00645935 94.1235199 -0.00854492 C95.00693558 -0.0057251 95.89035126 -0.00290527 96.80053711 0 C97.95866535 0.00056554 97.95866535 0.00056554 99.14019012 0.0011425 C100.90026855 0.12698364 100.90026855 0.12698364 101.90026855 1.12698364 C102.00068313 3.73848652 102.03643912 6.32356729 102.02966309 8.93557739 C102.03229156 10.16233688 102.03229156 10.16233688 102.03497314 11.41387939 C102.0393924 14.13076875 102.03645342 16.84759357 102.03308105 19.56448364 C102.03375407 21.44395968 102.03472408 23.32343564 102.03598022 25.20291138 C102.0374573 29.1473371 102.03530234 33.09174023 102.03063965 37.03616333 C102.02494236 42.10410867 102.02822131 47.17200106 102.03421211 52.23994446 C102.03781747 56.12255251 102.03667926 60.00514792 102.03408432 63.88775635 C102.03341498 65.75695807 102.03424371 67.62616093 102.03656387 69.49536133 C102.03908999 72.10306868 102.0352504 74.71068905 102.02966309 77.31838989 C102.03168732 78.09868561 102.03371155 78.87898132 102.03579712 79.68292236 C102.01453109 85.01272111 102.01453109 85.01272111 100.90026855 86.12698364 C99.53651727 86.2244884 98.16776946 86.25329964 96.80053711 86.25396729 C95.47541359 86.25819702 95.47541359 86.25819702 94.1235199 86.26251221 C93.14685867 86.26048798 92.17019745 86.25846375 91.16394043 86.25637817 C89.62994347 86.25900665 89.62994347 86.25900665 88.06495667 86.26168823 C84.66629364 86.26610892 81.26768216 86.26316799 77.86901855 86.25979614 C75.51871735 86.26046912 73.1684162 86.26143909 70.81811523 86.26269531 C65.88504373 86.26417258 60.9519903 86.2620168 56.0189209 86.25735474 C49.67976188 86.25165744 43.34064519 86.25493629 37.00148773 86.2609272 C32.14609454 86.26453204 27.29071148 86.26339458 22.43531799 86.26079941 C20.09721369 86.26012992 17.75910849 86.2609593 15.42100525 86.26327896 C12.15951079 86.26580422 8.89808593 86.26196668 5.63659668 86.25637817 C4.65993546 86.2584024 3.68327423 86.26042664 2.67701721 86.26251221 C1.79360153 86.25969238 0.91018585 86.25687256 0 86.25396729 C-0.77208549 86.25359026 -1.54417099 86.25321323 -2.33965302 86.25282478 C-4.09973145 86.12698364 -4.09973145 86.12698364 -5.09973145 85.12698364 C-5.20014602 82.51548076 -5.23590201 79.9304 -5.22912598 77.31838989 C-5.2308783 76.50055023 -5.23263062 75.68271057 -5.23443604 74.84008789 C-5.23885529 72.12319854 -5.23591631 69.40637371 -5.23254395 66.68948364 C-5.23321696 64.8100076 -5.23418697 62.93053165 -5.23544312 61.05105591 C-5.23692019 57.10663018 -5.23476523 53.16222706 -5.23010254 49.21780396 C-5.22440525 44.14985861 -5.2276842 39.08196622 -5.233675 34.01402283 C-5.23728036 30.13141477 -5.23614215 26.24881937 -5.23354721 22.36621094 C-5.23287787 20.49700921 -5.2337066 18.62780636 -5.23602676 16.75860596 C-5.23855288 14.1508986 -5.23471329 11.54327823 -5.22912598 8.93557739 C-5.23115021 8.15528168 -5.23317444 7.37498596 -5.23526001 6.57104492 C-5.20905153 0.00254369 -5.20905153 0.00254369 0 0 Z M11.90026855 19.12698364 C11.80117553 21.45858419 11.77056351 23.79328306 11.77526855 26.12698364 C11.77269043 27.40573364 11.7701123 28.68448364 11.76745605 30.00198364 C11.54165963 32.99385608 11.54165963 32.99385608 12.90026855 34.12698364 C15.10351829 34.22658516 17.31000346 34.25498121 19.51550293 34.25637817 C20.55206779 34.25900665 20.55206779 34.25900665 21.60957336 34.26168823 C23.90441363 34.26610618 26.19917744 34.26316897 28.49401855 34.25979614 C30.0820314 34.2604692 31.67004415 34.26143924 33.25805664 34.26269531 C36.59046405 34.26417221 39.92284471 34.262018 43.25524902 34.25735474 C47.53625366 34.25165745 51.81719561 34.2549365 56.09819794 34.2609272 C59.37860592 34.26453304 62.65899893 34.26339412 65.93940735 34.26079941 C67.51833605 34.2601302 69.0972661 34.26095834 70.67619324 34.26327896 C72.87917708 34.26580587 75.08205804 34.26196439 77.28503418 34.25637817 C78.54110474 34.25558258 79.79717529 34.25478699 81.09130859 34.25396729 C83.80435314 34.4477164 83.80435314 34.4477164 84.90026855 33.12698364 C84.99936158 30.79538309 85.0299736 28.46068423 85.02526855 26.12698364 C85.02784668 24.84823364 85.0304248 23.56948364 85.03308105 22.25198364 C85.25887748 19.2601112 85.25887748 19.2601112 83.90026855 18.12698364 C81.69701882 18.02738212 79.49053365 17.99898607 77.28503418 17.99758911 C76.24846931 17.99496063 76.24846931 17.99496063 75.19096375 17.99227905 C72.89612348 17.9878611 70.60135966 17.99079831 68.30651855 17.99417114 C66.71850571 17.99349809 65.13049296 17.99252805 63.54248047 17.99127197 C60.21007306 17.98979508 56.8776924 17.99194928 53.54528809 17.99661255 C49.26428345 18.00230984 44.9833415 17.99903079 40.70233917 17.99304008 C37.42193119 17.98943424 34.14153818 17.99057316 30.86112976 17.99316788 C29.28220106 17.99383708 27.70327101 17.99300894 26.12434387 17.99068832 C23.92136003 17.98816142 21.71847907 17.99200289 19.51550293 17.99758911 C18.25943237 17.9983847 17.00336182 17.9991803 15.70922852 18 C12.99618397 17.80625088 12.99618397 17.80625088 11.90026855 19.12698364 Z M11.90026855 53.12698364 C11.80117553 55.45858419 11.77056351 57.79328306 11.77526855 60.12698364 C11.77269043 61.40573364 11.7701123 62.68448364 11.76745605 64.00198364 C11.54165963 66.99385608 11.54165963 66.99385608 12.90026855 68.12698364 C15.10351829 68.22658516 17.31000346 68.25498121 19.51550293 68.25637817 C20.55206779 68.25900665 20.55206779 68.25900665 21.60957336 68.26168823 C23.90441363 68.26610618 26.19917744 68.26316897 28.49401855 68.25979614 C30.0820314 68.2604692 31.67004415 68.26143924 33.25805664 68.26269531 C36.59046405 68.26417221 39.92284471 68.262018 43.25524902 68.25735474 C47.53625366 68.25165745 51.81719561 68.2549365 56.09819794 68.2609272 C59.37860592 68.26453304 62.65899893 68.26339412 65.93940735 68.26079941 C67.51833605 68.2601302 69.0972661 68.26095834 70.67619324 68.26327896 C72.87917708 68.26580587 75.08205804 68.26196439 77.28503418 68.25637817 C78.54110474 68.25558258 79.79717529 68.25478699 81.09130859 68.25396729 C83.80435314 68.4477164 83.80435314 68.4477164 84.90026855 67.12698364 C84.99936158 64.79538309 85.0299736 62.46068423 85.02526855 60.12698364 C85.02784668 58.84823364 85.0304248 57.56948364 85.03308105 56.25198364 C85.25887748 53.2601112 85.25887748 53.2601112 83.90026855 52.12698364 C81.69701882 52.02738212 79.49053365 51.99898607 77.28503418 51.99758911 C76.24846931 51.99496063 76.24846931 51.99496063 75.19096375 51.99227905 C72.89612348 51.9878611 70.60135966 51.99079831 68.30651855 51.99417114 C66.71850571 51.99349809 65.13049296 51.99252805 63.54248047 51.99127197 C60.21007306 51.98979508 56.8776924 51.99194928 53.54528809 51.99661255 C49.26428345 52.00230984 44.9833415 51.99903079 40.70233917 51.99304008 C37.42193119 51.98943424 34.14153818 51.99057316 30.86112976 51.99316788 C29.28220106 51.99383708 27.70327101 51.99300894 26.12434387 51.99068832 C23.92136003 51.98816142 21.71847907 51.99200289 19.51550293 51.99758911 C18.25943237 51.9983847 17.00336182 51.9991803 15.70922852 52 C12.99618397 51.80625088 12.99618397 51.80625088 11.90026855 53.12698364 Z " fill="#000000" transform="translate(247.0997314453125,-0.126983642578125)"/>
<path d="M0 0 C1.32512352 -0.00422974 1.32512352 -0.00422974 2.67701721 -0.00854492 C4.14200905 -0.00550858 4.14200905 -0.00550858 5.63659668 -0.00241089 C7.17059364 -0.00503937 7.17059364 -0.00503937 8.73558044 -0.00772095 C12.13424347 -0.01214163 15.53285495 -0.00920071 18.93151855 -0.00582886 C21.28181976 -0.00650183 23.63212091 -0.00747181 25.98242188 -0.00872803 C30.91549337 -0.01020529 35.84854681 -0.00804952 40.78161621 -0.00338745 C47.12077523 0.00230985 53.45989191 -0.000969 59.79904938 -0.00695992 C64.65444256 -0.01056475 69.50982563 -0.0094273 74.36521912 -0.00683212 C76.70332341 -0.00616264 79.04142862 -0.00699202 81.37953186 -0.00931168 C84.64102632 -0.01183693 87.90245118 -0.0079994 91.16394043 -0.00241089 C92.14060165 -0.00443512 93.11726288 -0.00645935 94.1235199 -0.00854492 C95.00693558 -0.0057251 95.89035126 -0.00290527 96.80053711 0 C97.95866535 0.00056554 97.95866535 0.00056554 99.14019012 0.0011425 C100.90026855 0.12698364 100.90026855 0.12698364 101.90026855 1.12698364 C101.99865526 2.65103172 102.02825389 4.17959777 102.02966309 5.70681763 C102.03281525 6.68130356 102.03596741 7.65578949 102.03921509 8.6598053 C102.03617874 10.25037498 102.03617874 10.25037498 102.03308105 11.87307739 C102.03403778 12.9545253 102.03499451 14.03597321 102.03598022 15.15019226 C102.03666227 17.44266823 102.03480632 19.73514612 102.03063965 22.02761841 C102.02529691 25.5458102 102.03058119 29.06387401 102.0369873 32.58206177 C102.03632643 34.80406726 102.03504506 37.02607267 102.03308105 39.24807739 C102.03510529 40.30643295 102.03712952 41.36478851 102.03921509 42.45521545 C102.03448685 43.92167259 102.03448685 43.92167259 102.02966309 45.41775513 C102.02886749 46.28077744 102.0280719 47.14379974 102.0272522 48.03297424 C101.90026855 50.12698364 101.90026855 50.12698364 100.90026855 52.12698364 C82.42026855 52.12698364 63.94026855 52.12698364 44.90026855 52.12698364 C44.90026855 57.40698364 44.90026855 62.68698364 44.90026855 68.12698364 C47.38372803 68.11127319 47.38372803 68.11127319 49.9173584 68.09524536 C56.04119721 68.05913297 62.16502655 68.03611513 68.28894043 68.01712036 C70.94292787 68.00704275 73.59690415 67.99338051 76.25085449 67.97610474 C80.05849963 67.95193373 83.86599839 67.9405183 87.67370605 67.93167114 C89.46280899 67.91618729 89.46280899 67.91618729 91.28805542 67.90039062 C92.38904572 67.90023956 93.49003601 67.9000885 94.62438965 67.89993286 C96.08333145 67.89327103 96.08333145 67.89327103 97.57174683 67.88647461 C99.90026855 68.12698364 99.90026855 68.12698364 101.90026855 70.12698364 C102.07190586 72.68990681 102.13291413 75.13044221 102.08776855 77.68948364 C102.08680176 78.73652466 102.08680176 78.73652466 102.08581543 79.80471802 C102.04058014 84.98667206 102.04058014 84.98667206 100.90026855 86.12698364 C98.63034969 86.22138342 96.35744888 86.24440591 94.08557129 86.24050903 C93.01733627 86.24072807 93.01733627 86.24072807 91.92752075 86.24095154 C89.56293743 86.24025235 87.19843194 86.2324597 84.8338623 86.22463989 C83.19861392 86.22277573 81.56336498 86.22135182 79.92811584 86.22035217 C75.6159207 86.21652682 71.30375903 86.20669639 66.99157715 86.19564819 C61.82207175 86.18363991 56.65255519 86.17903192 51.48303986 86.17319489 C43.62209278 86.16348464 35.76121921 86.14432823 27.90026855 86.12698364 C27.90026855 68.96698364 27.90026855 51.80698364 27.90026855 34.12698364 C46.38026855 34.12698364 64.86026855 34.12698364 83.90026855 34.12698364 C83.90026855 29.17698364 83.90026855 24.22698364 83.90026855 19.12698364 C60.47026855 19.12698364 37.04026855 19.12698364 12.90026855 19.12698364 C12.57026855 41.23698364 12.24026855 63.34698364 11.90026855 86.12698364 C6.62026855 86.12698364 1.34026855 86.12698364 -4.09973145 86.12698364 C-5.86301616 84.36369893 -5.22588788 82.03181221 -5.23526001 79.68292236 C-5.23323578 78.90262665 -5.23121155 78.12233093 -5.22912598 77.31838989 C-5.2308783 76.50055023 -5.23263062 75.68271057 -5.23443604 74.84008789 C-5.23885529 72.12319854 -5.23591631 69.40637371 -5.23254395 66.68948364 C-5.23321696 64.8100076 -5.23418697 62.93053165 -5.23544312 61.05105591 C-5.23692019 57.10663018 -5.23476523 53.16222706 -5.23010254 49.21780396 C-5.22440525 44.14985861 -5.2276842 39.08196622 -5.233675 34.01402283 C-5.23728036 30.13141477 -5.23614215 26.24881937 -5.23354721 22.36621094 C-5.23287787 20.49700921 -5.2337066 18.62780636 -5.23602676 16.75860596 C-5.23855288 14.1508986 -5.23471329 11.54327823 -5.22912598 8.93557739 C-5.23115021 8.15528168 -5.23317444 7.37498596 -5.23526001 6.57104492 C-5.20905153 0.00254369 -5.20905153 0.00254369 0 0 Z " fill="#000000" transform="translate(126.0997314453125,-0.126983642578125)"/>
<path d="M0 0 C1.32512352 -0.00422974 1.32512352 -0.00422974 2.67701721 -0.00854492 C4.14200905 -0.00550858 4.14200905 -0.00550858 5.63659668 -0.00241089 C7.17059364 -0.00503937 7.17059364 -0.00503937 8.73558044 -0.00772095 C12.13424347 -0.01214163 15.53285495 -0.00920071 18.93151855 -0.00582886 C21.28181976 -0.00650183 23.63212091 -0.00747181 25.98242188 -0.00872803 C30.91549337 -0.01020529 35.84854681 -0.00804952 40.78161621 -0.00338745 C47.12077523 0.00230985 53.45989191 -0.000969 59.79904938 -0.00695992 C64.65444256 -0.01056475 69.50982563 -0.0094273 74.36521912 -0.00683212 C76.70332341 -0.00616264 79.04142862 -0.00699202 81.37953186 -0.00931168 C84.64102632 -0.01183693 87.90245118 -0.0079994 91.16394043 -0.00241089 C92.14060165 -0.00443512 93.11726288 -0.00645935 94.1235199 -0.00854492 C95.00693558 -0.0057251 95.89035126 -0.00290527 96.80053711 0 C97.95866535 0.00056554 97.95866535 0.00056554 99.14019012 0.0011425 C100.90026855 0.12698364 100.90026855 0.12698364 101.90026855 1.12698364 C102.02680053 3.61936934 102.0854668 6.07168805 102.08776855 8.56448364 C102.10001465 9.2586438 102.11226074 9.95280396 102.12487793 10.66799927 C102.13016697 12.48919265 102.02196063 14.30985284 101.90026855 16.12698364 C99.31723772 18.71001448 97.58600145 18.36280539 94.0668335 18.37582397 C92.84332184 18.36503815 92.84332184 18.36503815 91.59509277 18.35403442 C90.73648651 18.35432648 89.87788025 18.35461853 88.99325562 18.35491943 C86.14705398 18.35352287 83.30111212 18.33794637 80.45495605 18.32229614 C78.48483422 18.31856717 76.51471053 18.31571965 74.54458618 18.3137207 C69.35283307 18.30607511 64.16119142 18.28641868 58.96948242 18.26431274 C53.67429106 18.24387424 48.37908172 18.23472326 43.0838623 18.22463989 C32.68928202 18.20317365 22.29478455 18.16902656 11.90026855 18.12698364 C12.23026855 23.07698364 12.56026855 28.02698364 12.90026855 33.12698364 C41.94026855 33.45698364 70.98026855 33.78698364 100.90026855 34.12698364 C102.38646751 37.09938155 102.03203865 39.82317942 102.02526855 43.12698364 C102.02913574 45.01417114 102.02913574 45.01417114 102.03308105 46.93948364 C101.90026855 50.12698364 101.90026855 50.12698364 100.90026855 52.12698364 C71.86026855 52.45698364 42.82026855 52.78698364 12.90026855 53.12698364 C12.57026855 64.01698364 12.24026855 74.90698364 11.90026855 86.12698364 C6.62026855 86.12698364 1.34026855 86.12698364 -4.09973145 86.12698364 C-5.86301616 84.36369893 -5.22588788 82.03181221 -5.23526001 79.68292236 C-5.23323578 78.90262665 -5.23121155 78.12233093 -5.22912598 77.31838989 C-5.2308783 76.50055023 -5.23263062 75.68271057 -5.23443604 74.84008789 C-5.23885529 72.12319854 -5.23591631 69.40637371 -5.23254395 66.68948364 C-5.23321696 64.8100076 -5.23418697 62.93053165 -5.23544312 61.05105591 C-5.23692019 57.10663018 -5.23476523 53.16222706 -5.23010254 49.21780396 C-5.22440525 44.14985861 -5.2276842 39.08196622 -5.233675 34.01402283 C-5.23728036 30.13141477 -5.23614215 26.24881937 -5.23354721 22.36621094 C-5.23287787 20.49700921 -5.2337066 18.62780636 -5.23602676 16.75860596 C-5.23855288 14.1508986 -5.23471329 11.54327823 -5.22912598 8.93557739 C-5.23115021 8.15528168 -5.23317444 7.37498596 -5.23526001 6.57104492 C-5.20905153 0.00254369 -5.20905153 0.00254369 0 0 Z " fill="#000000" transform="translate(5.0997314453125,-0.126983642578125)"/>
</svg>
